<?xml version="1.0" encoding="UTF-8"?>
<svg width="25px" height="32px" viewBox="0 0 25 32" version="1.1" xmlns="http://www.w3.org/2000/svg" xmlns:xlink="http://www.w3.org/1999/xlink">
    <!-- Generator: Sketch 54.1 (76490) - https://sketchapp.com -->
    <title>ic_alert</title>
    <desc>Created with Sketch.</desc>
    <g id="all-copy" stroke="none" stroke-width="1" fill="none" fill-rule="evenodd">
        <g id="phone-portrait" transform="translate(-22.000000, -38.000000)" fill="#555555" fill-rule="nonzero">
            <g id="Group">
                <g id="NOTIFICATIONS" transform="translate(22.000000, 38.000000)">
                    <path d="M8.69859944,28.1401043 L16.32493,28.1401043 C16.325,28.1484522 16.3255602,28.1567304 16.3255602,28.1650783 C16.3255602,30.2574609 14.6180672,31.9536696 12.5117647,31.9536696 C10.4054622,31.9536696 8.69796919,30.2574609 8.69796919,28.1650783 C8.69796919,28.1567304 8.69852941,28.1484522 8.69859944,28.1401043 Z M24.6883053,23.4043826 C25.0497899,23.9319652 25.0880952,24.614887 24.787605,25.1791304 C24.4871849,25.7432348 23.897409,26.0961391 23.254902,26.0961391 L1.76848739,26.0961391 C1.12598039,26.0961391 0.536204482,25.7433043 0.235784314,25.1791304 C-0.0646358543,24.6149565 -0.0264005602,23.9320348 0.335154062,23.4044522 L3.76757703,18.3956174 C3.76757703,17.4393739 3.76757703,13.7963826 3.76757703,12.1465739 C3.76757703,7.93231304 6.78886555,4.4194087 10.7970588,3.62768696 L10.7970588,1.70330435 C10.7970588,0.762643478 11.5647059,1.77635684e-15 12.5116947,1.77635684e-15 C13.4586835,1.77635684e-15 14.2263305,0.762643478 14.2264006,1.70330435 L14.2264006,3.62761739 C18.2345938,4.41926957 21.2558824,7.93217391 21.2558824,12.1465043 C21.2558824,13.115687 21.2558824,16.8622609 21.2558824,18.3955478 L24.6883053,23.4043826 Z" id="ic_alert"></path>
                </g>
            </g>
        </g>
    </g>
</svg>