<?xml version="1.0" encoding="UTF-8"?>
<svg width="20px" height="20px" viewBox="0 0 20 20" version="1.1" xmlns="http://www.w3.org/2000/svg" xmlns:xlink="http://www.w3.org/1999/xlink">
    <!-- Generator: Sketch 54.1 (76490) - https://sketchapp.com -->
    <title>ic_cancel</title>
    <desc>Created with Sketch.</desc>
    <g id="Symbols" stroke="none" stroke-width="1" fill="none" fill-rule="evenodd">
        <g id="bt-cancel" transform="translate(-17.000000, -21.000000)" fill="#777777">
            <g id="ic_cancel">
                <path d="M24.8000002,28.8 L24.8000002,20.2 C24.8000002,18.9849736 25.7849737,18 27.0000002,18 C28.2150267,18 29.2000002,18.9849736 29.2000002,20.2 L29.2000002,28.8 L37.8,28.8 C39.0150264,28.8 40,29.7849736 40,31 C40,32.2150264 39.0150264,33.2 37.8,33.2 L29.2000002,33.2 L29.2000002,41.8 C29.2000002,43.0150265 28.2150267,44 27.0000002,44.0000001 C25.7849738,44.0000002 24.8000002,43.0150267 24.8000002,41.8000003 L24.8000002,33.2 L16.2,33.2 C14.9849736,33.2 14,32.2150264 14,31 C14,29.7849736 14.9849736,28.8 16.2,28.8 L24.8000002,28.8 Z" transform="translate(27.000000, 31.000000) rotate(45.000000) translate(-27.000000, -31.000000) "></path>
            </g>
        </g>
    </g>
</svg>