<?xml version="1.0" encoding="UTF-8"?>
<svg width="23px" height="23px" viewBox="0 0 23 23" version="1.1" xmlns="http://www.w3.org/2000/svg" xmlns:xlink="http://www.w3.org/1999/xlink">
    <!-- Generator: Sketch 54.1 (76490) - https://sketchapp.com -->
    <title>Combined Shape</title>
    <desc>Created with Sketch.</desc>
    <g id="all-copy" stroke="none" stroke-width="1" fill="none" fill-rule="evenodd">
        <g id="-assignments-output" transform="translate(-320.000000, -47.000000)" fill="#F14A5F">
            <g id="Group">
                <path d="M334.136364,55.869733 L343.48,55.869733 C344.871758,55.869733 346,56.9979754 346,58.3897328 L346,58.6224605 C346,60.0142179 344.871758,61.1424603 343.48,61.1424603 L334.136364,61.1424603 L334.136364,70.4860968 C334.136364,71.8778543 333.008121,73.0060967 331.616364,73.0060967 L331.383636,73.0060967 C329.991879,73.0060967 328.863636,71.8778543 328.863636,70.4860968 L328.863636,61.1424603 L319.52,61.1424603 C318.128242,61.1424603 317,60.0142179 317,58.6224605 L317,58.3897328 C317,56.9979754 318.128242,55.869733 319.52,55.869733 L328.863636,55.869733 L328.863636,46.5260965 C328.863636,45.134339 329.991879,44.0060967 331.383636,44.0060967 L331.616364,44.0060967 C333.008121,44.0060967 334.136364,45.134339 334.136364,46.5260965 L334.136364,55.869733 Z" id="Combined-Shape" transform="translate(331.500000, 58.506097) scale(-1, 1) rotate(45.000000) translate(-331.500000, -58.506097) "></path>
            </g>
        </g>
    </g>
</svg>