<?xml version="1.0" encoding="UTF-8"?>
<svg width="31px" height="29px" viewBox="0 0 31 29" version="1.1" xmlns="http://www.w3.org/2000/svg" xmlns:xlink="http://www.w3.org/1999/xlink">
    <!-- Generator: Sketch 54.1 (76490) - https://sketchapp.com -->
    <title>ic_logout_active</title>
    <desc>Created with Sketch.</desc>
    <g id="Symbols" stroke="none" stroke-width="1" fill="none" fill-rule="evenodd">
        <g id="logout" fill="#FFFFFF" fill-rule="nonzero">
            <path d="M20.2005161,9.62613333 L24.7165161,14.2929333 C25.0944516,14.6834667 25.0944516,15.3166667 24.7165161,15.7071333 L20.2005161,20.3736667 C20.0116129,20.5689333 19.7639355,20.6665333 19.5162581,20.6665333 C19.2685806,20.6665333 19.0209032,20.5689333 18.8319355,20.3736667 C18.454,19.9831333 18.454,19.35 18.8319355,18.9594667 L21.6959355,16 L9.83883871,16 C9.3043871,16 8.87109677,15.5522667 8.87109677,15 C8.87109677,14.4477333 9.3043871,14 9.83883871,14 L21.6960645,14 L18.8319355,11.0402667 C18.454,10.6497333 18.4540645,10.0166 18.8319355,9.62606667 C19.209871,9.2356 19.8227097,9.23566667 20.2005161,9.62613333 Z M14.3548387,26 L5.96774194,26 C5.43329032,26 5,25.5522667 5,25 L5,5 C5,4.44773333 5.43329032,4 5.96774194,4 L14.3548387,4 C14.8892903,4 15.3225806,4.44773333 15.3225806,5 C15.3225806,5.55226667 14.8892903,6 14.3548387,6 L6.93548387,6 L6.93548387,24 L14.3548387,24 C14.8892903,24 15.3225806,24.4477333 15.3225806,25 C15.3225806,25.5522667 14.8892903,26 14.3548387,26 Z" id="Combined-Shape"></path>
        </g>
    </g>
</svg>