<?xml version="1.0" encoding="UTF-8"?>
<svg width="31px" height="29px" viewBox="0 0 31 29" version="1.1" xmlns="http://www.w3.org/2000/svg" xmlns:xlink="http://www.w3.org/1999/xlink">
    <!-- Generator: Sketch 54.1 (76490) - https://sketchapp.com -->
    <title>ic_plan_active</title>
    <desc>Created with Sketch.</desc>
    <defs>
        <path d="M24.5061868,3 L7.42357977,3 C6.63735409,3 6,3.61689016 6,4.37947213 L6,24.6195098 C6,25.3820918 6.637393,25.998982 7.42357977,25.998982 L24.5060311,25.998982 C25.2929961,25.998982 25.9296109,25.3820918 25.9296109,24.6195098 L25.9296109,4.37947213 C25.9296109,3.61689016 25.2929961,3 24.5061868,3 Z M24.3367315,11.9891164 L21.6545525,11.9891164 L21.6545525,9.44490164 L24.3367315,9.44490164 L24.3367315,11.9891164 Z M21.6545525,18.0850213 L21.6545525,16.0831918 L24.3367315,16.0831918 L24.3367315,18.0848328 L21.6545525,18.0848328 L21.6545525,18.0850213 L21.6545525,18.0850213 Z M24.3367315,19.1311443 L24.3367315,21.1327475 L21.6545525,21.1327475 L21.6545525,19.1311443 L24.3367315,19.1311443 Z M21.6545525,15.0370689 L21.6545525,13.0354656 L24.3367315,13.0354656 L24.3367315,15.0370689 L21.6545525,15.0370689 Z M11.4533852,9.44490164 L20.6302335,9.44490164 L20.6302335,11.9891541 L11.4533852,11.9891541 L11.4533852,9.44490164 Z M11.4533852,13.0354656 L20.6302335,13.0354656 L20.6302335,15.0370689 L11.4533852,15.0370689 L11.4533852,13.0354656 Z M11.4533852,16.0831918 L20.6302335,16.0831918 L20.6302335,18.0848328 L11.4533852,18.0848328 L11.4533852,16.0831918 Z M11.4533852,19.1311443 L20.6302335,19.1311443 L20.6302335,21.1327475 L11.4533852,21.1327475 L11.4533852,19.1311443 Z M10.3836576,24.4979869 L7.50003891,24.4979869 L7.50003891,22.1790967 L10.3836576,22.1790967 L10.3836576,24.4979869 Z M10.3836576,21.1327475 L7.50003891,21.1327475 L7.50003891,19.1311443 L10.3836576,19.1311443 L10.3836576,21.1327475 Z M10.3836576,18.0850213 L7.50003891,18.0850213 L7.50003891,16.0831918 L10.3836576,16.0831918 L10.3836576,18.0850213 Z M10.3836576,15.0370689 L7.50003891,15.0370689 L7.50003891,13.0354656 L10.3836576,13.0354656 L10.3836576,15.0370689 Z M10.3836576,11.9891164 L7.50003891,11.9891164 L7.50003891,9.44490164 L10.3836576,9.44490164 L10.3836576,11.9891164 Z M11.4533852,22.1790967 L20.6302335,22.1790967 L20.6302335,24.4979869 L11.4533852,24.4979869 L11.4533852,22.1790967 Z M21.6545525,24.4979869 L21.6545525,22.1790967 L24.3367315,22.1790967 L24.3367315,24.4979869 L21.6545525,24.4979869 Z" id="path-1"></path>
    </defs>
    <g id="Symbols" stroke="none" stroke-width="1" fill="none" fill-rule="evenodd">
        <g id="Tracking">
            <mask id="mask-2" fill="white">
                <use xlink:href="#path-1"></use>
            </mask>
            <use id="Shape" fill="#FFFFFF" fill-rule="nonzero" xlink:href="#path-1"></use>
        </g>
    </g>
</svg>