<?xml version="1.0" encoding="UTF-8"?>
<svg width="31px" height="29px" viewBox="0 0 31 29" version="1.1" xmlns="http://www.w3.org/2000/svg" xmlns:xlink="http://www.w3.org/1999/xlink">
    <!-- Generator: Sketch 54.1 (76490) - https://sketchapp.com -->
    <title>ic_assignment</title>
    <desc>Created with Sketch.</desc>
    <g id="Symbols" stroke="none" stroke-width="1" fill="none" fill-rule="evenodd">
        <g id="calendar" fill="#A9AFBB" fill-rule="nonzero">
            <path d="M24.5119048,6.66174641 C25.3336905,6.66174641 26,7.34241645 26,8.18204937 L26,24.479697 C26,25.3194516 25.33375,26 24.5119048,26 L7.48809524,26 C6.66625,26 6,25.3194516 6,24.479697 L6,8.18204937 C6,7.34241645 6.66625,6.66174641 7.48809524,6.66174641 L9.125,6.66174641 L9.125,5.52030295 C9.125,4.68067004 9.79125,4 10.6130952,4 L10.672619,4 C11.4944643,4 12.1607143,4.68067004 12.1607143,5.52030295 L12.1607143,6.66174641 L19.8392857,6.66174641 L19.8392857,5.52030295 C19.8392857,4.68067004 20.5055357,4 21.327381,4 L21.3869048,4 C22.20875,4 22.875,4.68067004 22.875,5.52030295 L22.875,6.66174641 L24.5119048,6.66174641 Z M23.5,23.5979213 L23.5,11.2530613 L8.5,11.2530613 L8.5,23.5979213 L23.5,23.5979213 Z M10.53875,16.8395058 C10.4072619,16.8395058 10.3006548,16.7305913 10.3006548,16.5962573 L10.3006548,13.9510518 C10.3006548,13.8167178 10.4072619,13.7078033 10.53875,13.7078033 L13.1279167,13.7078033 C13.2594048,13.7078033 13.3660119,13.8167178 13.3660119,13.9510518 L13.3660119,16.5962573 C13.3660119,16.7305913 13.2594048,16.8395058 13.1279167,16.8395058 L10.53875,16.8395058 Z M14.7054167,16.8395058 C14.5739286,16.8395058 14.4673214,16.7305913 14.4673214,16.5962573 L14.4673214,13.9510518 C14.4673214,13.8167178 14.5739286,13.7078033 14.7054167,13.7078033 L17.2945833,13.7078033 C17.4260714,13.7078033 17.5326786,13.8167178 17.5326786,13.9510518 L17.5326786,16.5962573 C17.5326786,16.7305913 17.4260714,16.8395058 17.2945833,16.8395058 L14.7054167,16.8395058 Z M18.8720833,16.8395058 C18.7405952,16.8395058 18.6339881,16.7305913 18.6339881,16.5962573 L18.6339881,13.9510518 C18.6339881,13.8167178 18.7405952,13.7078033 18.8720833,13.7078033 L21.46125,13.7078033 C21.5927381,13.7078033 21.6993452,13.8167178 21.6993452,13.9510518 L21.6993452,16.5962573 C21.6993452,16.7305913 21.5927381,16.8395058 21.46125,16.8395058 L18.8720833,16.8395058 Z M10.53875,21.096354 C10.4072619,21.096354 10.3006548,20.9874395 10.3006548,20.8531056 L10.3006548,18.2079 C10.3006548,18.0735661 10.4072619,17.9646516 10.53875,17.9646516 L13.1279167,17.9646516 C13.2594048,17.9646516 13.3660119,18.0735661 13.3660119,18.2079 L13.3660119,20.8531056 C13.3660119,20.9874395 13.2594048,21.096354 13.1279167,21.096354 L10.53875,21.096354 Z M14.7054167,21.096354 C14.5739286,21.096354 14.4673214,20.9874395 14.4673214,20.8531056 L14.4673214,18.2079 C14.4673214,18.0735661 14.5739286,17.9646516 14.7054167,17.9646516 L17.2945833,17.9646516 C17.4260714,17.9646516 17.5326786,18.0735661 17.5326786,18.2079 L17.5326786,20.8531056 C17.5326786,20.9874395 17.4260714,21.096354 17.2945833,21.096354 L14.7054167,21.096354 Z M18.8720833,21.096354 C18.7405952,21.096354 18.6339881,20.9874395 18.6339881,20.8531056 L18.6339881,18.2079 C18.6339881,18.0735661 18.7405952,17.9646516 18.8720833,17.9646516 L21.46125,17.9646516 C21.5927381,17.9646516 21.6993452,18.0735661 21.6993452,18.2079 L21.6993452,20.8531056 C21.6993452,20.9874395 21.5927381,21.096354 21.46125,21.096354 L18.8720833,21.096354 Z" id="Combined-Shape"></path>
        </g>
    </g>
</svg>