<?xml version="1.0" encoding="UTF-8"?>
<svg width="31px" height="29px" viewBox="0 0 31 29" version="1.1" xmlns="http://www.w3.org/2000/svg" xmlns:xlink="http://www.w3.org/1999/xlink">
    <!-- Generator: Sketch 54.1 (76490) - https://sketchapp.com -->
    <title>ic_reports_active</title>
    <desc>Created with Sketch.</desc>
    <g id="Symbols" stroke="none" stroke-width="1" fill="none" fill-rule="evenodd">
        <g id="chart" fill="#FFFFFF" fill-rule="nonzero">
            <path d="M7.4140625,13.78125 C6.29943848,13.78125 5.39257812,12.8743896 5.39257812,11.7597656 C5.39257812,10.6451416 6.29943848,9.73828125 7.4140625,9.73828125 C8.52868652,9.73828125 9.43554688,10.6451416 9.43554688,11.7597656 C9.43554688,11.8436432 9.42080688,11.9234848 9.41080476,12.0047302 L11.4054413,13.0019608 C11.7690277,12.6517105 12.2610626,12.4335938 12.8046875,12.4335938 C13.1158066,12.4335938 13.4070969,12.5101013 13.6706619,12.6362686 L16.376503,9.93042756 C16.2503357,9.66686248 16.1738281,9.37557219 16.1738281,9.06445312 C16.1738281,7.9498291 17.0806885,7.04296875 18.1953125,7.04296875 C18.6090851,7.04296875 18.9935532,7.16878508 19.3143234,7.38304136 L21.6653519,5.62020874 C21.60569,5.42981721 21.5644531,5.23135376 21.5644531,5.02148438 C21.5644531,3.90686035 22.4713135,3 23.5859375,3 C24.7005615,3 25.6074219,3.90686035 25.6074219,5.02148438 C25.6074219,6.1361084 24.7005615,7.04296875 23.5859375,7.04296875 C23.1721649,7.04296875 22.7876968,6.91715242 22.4669266,6.70289614 L20.1158981,8.46572876 C20.17556,8.65612029 20.2167969,8.85458374 20.2167969,9.06445312 C20.2167969,10.1790771 19.3099365,11.0859375 18.1953125,11.0859375 C17.8841934,11.0859375 17.5929031,11.0094299 17.3293381,10.8832626 L14.623497,13.5891037 C14.7496643,13.8526688 14.8261719,14.1439591 14.8261719,14.4550781 C14.8261719,15.5697021 13.9193115,16.4765625 12.8046875,16.4765625 C11.6900635,16.4765625 10.7832031,15.5697021 10.7832031,14.4550781 C10.7832031,14.3712005 10.7979431,14.291359 10.8079452,14.2101135 L8.81330874,13.212883 C8.44972231,13.5631332 7.95768736,13.78125 7.4140625,13.78125 Z M26.3261719,24.6523438 C26.6985321,24.6523438 27,24.9538117 27,25.3261719 C27,25.6985321 26.6985321,26 26.3261719,26 L4.67382812,26 C4.30146792,26 4,25.6985321 4,25.3261719 C4,24.9538117 4.30146792,24.6523438 4.67382812,24.6523438 L5.39257812,24.6523438 L5.39257812,17.1503906 C5.39257812,16.7780304 5.69404604,16.4765625 6.06640625,16.4765625 L8.76171875,16.4765625 C9.13407896,16.4765625 9.43554688,16.7780304 9.43554688,17.1503906 L9.43554688,24.6523438 L10.7832031,24.6523438 L10.7832031,19.8457031 C10.7832031,19.4733429 11.084671,19.171875 11.4570312,19.171875 L14.1523438,19.171875 C14.524704,19.171875 14.8261719,19.4733429 14.8261719,19.8457031 L14.8261719,24.6523438 L16.1738281,24.6523438 L16.1738281,14.4550781 C16.1738281,14.0827179 16.475296,13.78125 16.8476562,13.78125 L19.5429688,13.78125 C19.915329,13.78125 20.2167969,14.0827179 20.2167969,14.4550781 L20.2167969,24.6523438 L21.5644531,24.6523438 L21.5644531,10.4121094 C21.5644531,10.0397492 21.865921,9.73828125 22.2382812,9.73828125 L24.9335938,9.73828125 C25.305954,9.73828125 25.6074219,10.0397492 25.6074219,10.4121094 L25.6074219,24.6523438 L26.3261719,24.6523438 Z" id="Combined-Shape"></path>
        </g>
    </g>
</svg>