<?xml version="1.0" encoding="UTF-8"?>
<svg width="31px" height="29px" viewBox="0 0 31 29" version="1.1" xmlns="http://www.w3.org/2000/svg" xmlns:xlink="http://www.w3.org/1999/xlink">
    <!-- Generator: Sketch 54.1 (76490) - https://sketchapp.com -->
    <title>ic_home</title>
    <desc>Created with Sketch.</desc>
    <g id="Symbols" stroke="none" stroke-width="1" fill="none" fill-rule="evenodd">
        <g id="dashboard">
            <g id="Group-3" transform="translate(6.000000, 5.000000)">
                <path d="M2,0 L6,0 C7.1045695,-2.02906125e-16 8,0.8954305 8,2 L8,8 C8,9.1045695 7.1045695,10 6,10 L2,10 C0.8954305,10 1.3527075e-16,9.1045695 0,8 L0,2 C-1.3527075e-16,0.8954305 0.8954305,2.02906125e-16 2,0 Z M2,12 L6,12 C7.1045695,12 8,12.8954305 8,14 L8,16 C8,17.1045695 7.1045695,18 6,18 L2,18 C0.8954305,18 1.3527075e-16,17.1045695 0,16 L0,14 C-1.3527075e-16,12.8954305 0.8954305,12 2,12 Z M12,18 C10.8954305,18 10,17.1045695 10,16 L10,10 C10,8.8954305 10.8954305,8 12,8 L16,8 C17.1045695,8 18,8.8954305 18,10 L18,16 C18,17.1045695 17.1045695,18 16,18 L12,18 Z M12,6 C10.8954305,6 10,5.1045695 10,4 L10,2 C10,0.8954305 10.8954305,0 12,0 L16,0 C17.1045695,0 18,0.8954305 18,2 L18,4 C18,5.1045695 17.1045695,6 16,6 L12,6 Z" id="Combined-Shape" fill="#A9AFBB"></path>
                <g id="Group-2" transform="translate(14.000000, 9.000000) scale(1, -1) translate(-14.000000, -9.000000) translate(10.000000, 0.000000)"></g>
            </g>
        </g>
    </g>
</svg>