<?xml version="1.0" encoding="UTF-8"?>
<svg width="33px" height="24px" viewBox="0 0 33 24" version="1.1" xmlns="http://www.w3.org/2000/svg" xmlns:xlink="http://www.w3.org/1999/xlink">
    <!-- Generator: Sketch 54.1 (76490) - https://sketchapp.com -->
    <title>Combined Shape</title>
    <desc>Created with Sketch.</desc>
    <g id="all-copy" stroke="none" stroke-width="1" fill="none" fill-rule="evenodd">
        <g id="phone-portrait" transform="translate(-320.000000, -43.000000)" fill="#CFCFCF">
            <g id="Group">
                <path d="M322.823529,43 L350.176471,43 C351.735863,43 353,44.2641372 353,45.8235294 C353,47.3829216 351.735863,48.6470588 350.176471,48.6470588 L322.823529,48.6470588 C321.264137,48.6470588 320,47.3829216 320,45.8235294 C320,44.2641372 321.264137,43 322.823529,43 Z M322.823529,52.1764706 L350.176471,52.1764706 C351.735863,52.1764706 353,53.4406078 353,55 C353,56.5593922 351.735863,57.8235294 350.176471,57.8235294 L322.823529,57.8235294 C321.264137,57.8235294 320,56.5593922 320,55 C320,53.4406078 321.264137,52.1764706 322.823529,52.1764706 Z M322.823529,61.3529412 L350.176471,61.3529412 C351.735863,61.3529412 353,62.6170784 353,64.1764706 C353,65.7358628 351.735863,67 350.176471,67 L322.823529,67 C321.264137,67 320,65.7358628 320,64.1764706 C320,62.6170784 321.264137,61.3529412 322.823529,61.3529412 Z" id="Combined-Shape"></path>
            </g>
        </g>
    </g>
</svg>